<svg xmlns="http://www.w3.org/2000/svg" width="168" height="282.044" viewBox="0 0 168 282.044">
  <g id="Grupo_298" data-name="Grupo 298" transform="translate(-104 -192.5)">
    <g id="Grupo_296" data-name="Grupo 296" transform="translate(-14 2)">
      <path id="Exclusión_1" data-name="Exclusión 1" d="M67.886,225.914c-25.031,0-36.431-9.045-36.431-17.449,0-3.682,2.21-7.306,6.222-10.2,4.524-3.268,11.194-5.54,19.289-6.57C44.88,171.934,16.048,124.454,9.333,110.348c-3.1-6.516-5.595-15.4-7.408-26.408a67.887,67.887,0,1,1,131.924,0c-1.818,11.019-4.311,19.9-7.409,26.408-6.728,14.13-35.554,61.592-47.635,81.343,8.1,1.031,14.768,3.3,19.292,6.57,4.013,2.9,6.223,6.522,6.223,10.2C104.32,216.869,92.918,225.914,67.886,225.914Zm-4.8-24.255a51.166,51.166,0,0,0-15.47,3.1c-3.6,1.42-5.45,2.916-5.68,3.769.279.956,2.749,2.68,6.929,4.123a58.484,58.484,0,0,0,19.023,2.774c16.471,0,25.225-4.982,25.933-6.964-.31-.868-2.223-2.366-5.8-3.755a51.448,51.448,0,0,0-15.333-3.05l-.053.086c-.129.211-.232.377-.284.468a5.243,5.243,0,0,1-8.926,0l-.141-.229,0-.008Zm4.8-191.175A57.408,57.408,0,0,0,12.155,81.639c.03.12.057.249.083.407,1.637,9.988,3.905,18.217,6.56,23.8,6.653,13.968,36.546,63.117,49.089,83.6,9.768-15.945,42.183-69.1,49.09-83.6,2.654-5.585,4.923-13.814,6.561-23.8a3.613,3.613,0,0,1,.082-.407A57.408,57.408,0,0,0,67.886,10.485Zm0,103.676A47.665,47.665,0,1,1,115.551,66.5,47.717,47.717,0,0,1,67.885,114.16Zm0-88.193A40.528,40.528,0,1,0,108.414,66.5,40.575,40.575,0,0,0,67.886,25.967ZM94.827,73.156a5.565,5.565,0,1,1,5.564-5.564A5.57,5.57,0,0,1,94.827,73.156Zm-52.893,0A5.565,5.565,0,1,1,47.5,67.592,5.57,5.57,0,0,1,41.934,73.156Z" transform="translate(135.609 191)" fill="#fff" stroke="#fff" stroke-width="1"/>
      <text id="PointGirl" transform="translate(118 462.544)" fill="#fff" font-size="43" font-family="Quantify"><tspan x="0" y="0">PointGirl</tspan></text>
      <path id="Trazado_357" data-name="Trazado 357" d="M-313.333,659.167s3.238,5.465,9.31,5.06a9.448,9.448,0,0,0,8.1-5.06" transform="translate(508.232 -398.744)" fill="none" stroke="#fff" stroke-linecap="round" stroke-linejoin="round" stroke-width="3"/>
    </g>
  </g>
</svg>
