<svg xmlns="http://www.w3.org/2000/svg" width="141" height="232.491" viewBox="0 0 141 232.491">
  <g id="Grupo_297" data-name="Grupo 297" transform="translate(371 -270)">
    <g id="Grupo_295" data-name="Grupo 295" transform="translate(-5.481)">
      <path id="Trazado_353" data-name="Trazado 353" d="M500.408,232.734a55.9,55.9,0,1,0-108.634,0c1.493,9.065,3.546,16.382,6.1,21.746,5.493,11.538,28.61,49.631,39.224,66.982-14.347,1.827-21.007,8-21.007,13.813,0,6.919,9.388,14.369,30,14.369s30-7.45,30-14.369c0-5.816-6.661-11.986-21.01-13.813,10.613-17.351,33.732-55.444,39.225-66.982C496.862,249.116,498.913,241.8,500.408,232.734ZM467.446,335.275c-.584,1.635-7.8,5.735-21.355,5.735-13.713,0-20.938-4.2-21.371-5.68.387-1.433,6.28-4.956,17.416-5.659.129.21.23.372.281.456a4.317,4.317,0,0,0,7.35,0c.049-.084.149-.246.277-.456C461.037,330.364,466.922,333.808,467.446,335.275Zm-61.778-84.506c-2.186-4.6-4.054-11.373-5.4-19.6-.019-.112-.04-.224-.068-.335a47.269,47.269,0,1,1,91.786,0,3.153,3.153,0,0,0-.067.335c-1.349,8.223-3.219,15-5.4,19.6-5.547,11.648-30.854,53.22-40.423,68.841C436.525,303.989,411.217,262.418,405.668,250.769Z" transform="translate(-741.708 106.388)" fill="#3379ba"/>
      <path id="Trazado_354" data-name="Trazado 354" d="M446.09,179.118a39.25,39.25,0,1,0,39.251,39.252A39.3,39.3,0,0,0,446.09,179.118Z" transform="translate(-741.708 106.388)" fill="#3379ba"/>
      <path id="Trazado_355" data-name="Trazado 355" d="M412.718,218.37a33.373,33.373,0,1,1,33.373,33.372A33.411,33.411,0,0,1,412.718,218.37Z" transform="translate(-741.708 106.388)" fill="#c84e70"/>
      <circle id="Elipse_29" data-name="Elipse 29" cx="4.582" cy="4.582" r="4.582" transform="translate(-321.57 321.077)" fill="#fff"/>
      <circle id="Elipse_30" data-name="Elipse 30" cx="4.582" cy="4.582" r="4.582" transform="translate(-278.015 321.077)" fill="#fff"/>
      <path id="Trazado_356" data-name="Trazado 356" d="M440.4,221.343a8.3,8.3,0,0,0,12.86,0" transform="translate(-741.708 106.388)" fill="none" stroke="#fff" stroke-linecap="round" stroke-miterlimit="10" stroke-width="2"/>
    </g>
    <text id="PointGirl" transform="translate(-371 494.491)" fill="#c84e70" font-size="36" font-family="Quantify"><tspan x="0" y="0">PointGirl</tspan></text>
  </g>
</svg>
