<svg xmlns="http://www.w3.org/2000/svg" xmlns:xlink="http://www.w3.org/1999/xlink" width="292.709" height="254.308" viewBox="0 0 292.709 254.308">
  <defs>
    <clipPath id="clip-path">
      <path id="Trazado_161" data-name="Trazado 161" d="M2169.333,180.606c41.192-18.146,38.47-18.146,66.052-37.744s71.859,10.888,83.472,24.679,53.712,52.261,0,142.991-149.524,79.843-149.524,79.843-96.537,1.452-114.683-102.344c-5.807-52.987,2.9-60.971,15.969-72.584C2101.1,182.058,2128.141,198.752,2169.333,180.606Z" transform="translate(-794.316 689)" fill="#bcbbbb"/>
    </clipPath>
  </defs>
  <g id="img-2" transform="translate(-42 -173)">
    <path id="Trazado_143" data-name="Trazado 143" d="M2173.675,184.064c41.192-18.146,34.127-21.6,61.709-41.2s71.859,10.888,83.472,24.679,53.712,52.261,0,142.991-149.524,79.843-149.524,79.843-96.537,1.452-114.683-102.344c-5.807-52.987,2.9-60.971,15.969-72.584C2106.044,191.649,2132.483,202.21,2173.675,184.064Z" transform="translate(-2010.816 36.524)" fill="rgba(228,228,228,0.43)"/>
    <g id="Enmascarar_grupo_3" data-name="Enmascarar grupo 3" transform="translate(-1216.5 -652.476)" clip-path="url(#clip-path)">
      <g id="Grupo_280" data-name="Grupo 280" transform="translate(1070.589 752.962)">
        <g id="Grupo_95" data-name="Grupo 95" transform="translate(387.326 266.429)">
          <path id="Trazado_162" data-name="Trazado 162" d="M1282.023,878.838a7.4,7.4,0,0,0,2.139-1.2c.787-.475,5.937-7.845,5.615-8.763a1.77,1.77,0,0,0-.685-.882,2.345,2.345,0,0,0-2.387.043c-1.271.709-6.121,7.109-6.331,8.609a2.1,2.1,0,0,0,.973,2.139A1.208,1.208,0,0,0,1282.023,878.838Z" transform="translate(-1280.355 -867.682)" fill="#af8b7f"/>
        </g>
        <g id="Grupo_222" data-name="Grupo 222" transform="translate(266.905 136.94)">
          <g id="Grupo_217" data-name="Grupo 217" transform="translate(0.505 0.134)">
            <g id="Grupo_96" data-name="Grupo 96" transform="translate(172.269)">
              <path id="Trazado_163" data-name="Trazado 163" d="M1585.237,139.99l-.007,1.533.983.024.682.017.019-3.865-11.119,3.6,5.033.122Z" transform="translate(-1575.794 -137.698)" fill="none"/>
            </g>
            <g id="Grupo_97" data-name="Grupo 97" transform="translate(42.387 137.567)">
              <path id="Trazado_164" data-name="Trazado 164" d="M843.893,914.417l.8-.344-1.86-.045Z" transform="translate(-842.829 -914.028)" fill="none"/>
            </g>
            <g id="Grupo_98" data-name="Grupo 98" transform="translate(91.829 0.416)">
              <path id="Trazado_165" data-name="Trazado 165" d="M1121.848,141.268l.178,0,7.206.175-3.3-1.4Z" transform="translate(-1121.848 -140.043)" fill="none"/>
            </g>
            <g id="Grupo_99" data-name="Grupo 99" transform="translate(85.149 115.863)">
              <path id="Trazado_166" data-name="Trazado 166" d="M1089.429,791.549l-5.28,2.279,2.183.871,3.053-1.318,6.953,3.411.645-1.538Z" transform="translate(-1084.149 -791.549)" fill="#f4ebe1"/>
            </g>
            <g id="Grupo_100" data-name="Grupo 100" transform="translate(66.093 7.137)">
              <path id="Trazado_167" data-name="Trazado 167" d="M985.94,179.144l-1.906-1.166-6.942,2.084-.482,1.883Z" transform="translate(-976.611 -177.977)" fill="#f4ebe1"/>
            </g>
            <g id="Grupo_101" data-name="Grupo 101" transform="translate(33.967 11.48)">
              <path id="Trazado_168" data-name="Trazado 168" d="M807.813,208l10.78-3.236.453-1.874-11.225,3.369-12.193-3.775-.315,1.645Z" transform="translate(-795.312 -202.481)" fill="#f4ebe1"/>
            </g>
            <g id="Grupo_102" data-name="Grupo 102" transform="translate(102.566 122.089)">
              <path id="Trazado_169" data-name="Trazado 169" d="M1212.6,841.213l-.385-.189-29.221-14.338-.552,1.583,15.4,7.557,16.395,6.538,15.233-5.9c.19-.672.393-1.343.591-2.014Z" transform="translate(-1182.437 -826.686)" fill="#f4ebe1"/>
            </g>
            <g id="Grupo_103" data-name="Grupo 103" transform="translate(162.552 125.585)">
              <path id="Trazado_170" data-name="Trazado 170" d="M1520.957,847.672l1.727-.669-1.285-.59C1521.257,846.834,1521.105,847.252,1520.957,847.672Z" transform="translate(-1520.957 -846.412)" fill="#f4ebe1"/>
            </g>
            <g id="Grupo_104" data-name="Grupo 104" transform="translate(0.329 50.911)">
              <path id="Trazado_171" data-name="Trazado 171" d="M607.352,425.766,605.693,425l-.21,27.763,1.662.369Z" transform="translate(-605.483 -425.003)" fill="#f4ebe1"/>
            </g>
            <g id="Grupo_105" data-name="Grupo 105" transform="translate(62.355 120.312)">
              <path id="Trazado_172" data-name="Trazado 172" d="M955.893,824.163l-.379,1.976,19.977-8.623-2.209-.859Z" transform="translate(-955.514 -816.656)" fill="#f4ebe1"/>
            </g>
            <g id="Grupo_106" data-name="Grupo 106" transform="translate(0.586 19.87)">
              <path id="Trazado_173" data-name="Trazado 173" d="M608.782,250.545l-1.66-.717-.187,24.762,1.659.766Z" transform="translate(-606.935 -249.828)" fill="#f4ebe1"/>
            </g>
            <g id="Grupo_107" data-name="Grupo 107" transform="translate(0 111.86)">
              <path id="Trazado_174" data-name="Trazado 174" d="M605.3,778.009l.064-8.461-1.661-.591-.077,10.212,4.155,1.519.318-1.657Z" transform="translate(-603.629 -768.957)" fill="#f4ebe1"/>
            </g>
            <g id="Grupo_108" data-name="Grupo 108" transform="translate(0.114 83.483)">
              <path id="Trazado_175" data-name="Trazado 175" d="M606.112,609.2l-1.662-.38-.178,23.543,1.661.573Z" transform="translate(-604.272 -608.816)" fill="#f4ebe1"/>
            </g>
            <g id="Grupo_109" data-name="Grupo 109" transform="translate(0.826 1.149)">
              <path id="Trazado_176" data-name="Trazado 176" d="M610.028,146.434l23.246,7.2.315-1.645-25.209-7.805-.089,11.717,1.658.817Z" transform="translate(-608.292 -144.181)" fill="#f4ebe1"/>
            </g>
            <g id="Grupo_110" data-name="Grupo 110" transform="translate(181.482 12.443)">
              <path id="Trazado_177" data-name="Trazado 177" d="M1627.788,244.78c.554-1.226,1.121-2.448,1.682-3.671l.163-33.189-1.684,4.034Z" transform="translate(-1627.788 -207.919)" fill="#f4ebe1"/>
            </g>
            <g id="Grupo_111" data-name="Grupo 111" transform="translate(153.404 3.595)">
              <path id="Trazado_178" data-name="Trazado 178" d="M1493.23,158.11l-5.034-.122-17.9,5.789-.963,2.061Z" transform="translate(-1469.331 -157.988)" fill="#f4ebe1"/>
            </g>
            <g id="Grupo_112" data-name="Grupo 112" transform="translate(182.688 3.849)">
              <path id="Trazado_179" data-name="Trazado 179" d="M1635.273,159.434h0l-.681-.017Z" transform="translate(-1634.592 -159.417)" fill="#f4ebe1"/>
            </g>
            <g id="Grupo_113" data-name="Grupo 113" transform="translate(169.149 121.509)">
              <path id="Trazado_180" data-name="Trazado 180" d="M1560.017,825.249l.738-1.839-2.566.994Z" transform="translate(-1558.189 -823.41)" fill="#f4ebe1"/>
            </g>
            <g id="Grupo_114" data-name="Grupo 114" transform="translate(181.231 81.464)">
              <path id="Trazado_181" data-name="Trazado 181" d="M1626.371,616.545a16.121,16.121,0,0,1,1.673-1.84l.085-17.279q-.844,1.371-1.678,2.75Z" transform="translate(-1626.371 -597.425)" fill="#f4ebe1"/>
            </g>
            <g id="Grupo_115" data-name="Grupo 115" transform="translate(92.008 1.645)">
              <path id="Trazado_182" data-name="Trazado 182" d="M1124.7,148.109l1.963-.589,37.248,15.84,11.772-3.807.939-2.054-12.632,4.085-33.927-14.428-7.205-.175Z" transform="translate(-1122.856 -146.981)" fill="#f4ebe1"/>
            </g>
            <g id="Grupo_116" data-name="Grupo 116" transform="translate(48.68 129.852)">
              <path id="Trazado_183" data-name="Trazado 183" d="M878.534,874.444l-.192,1.9,8.964-3.87.379-1.976Z" transform="translate(-878.342 -870.494)" fill="#a6caa2"/>
            </g>
            <g id="Grupo_117" data-name="Grupo 117" transform="translate(12.231 124.886)">
              <path id="Trazado_184" data-name="Trazado 184" d="M672.971,842.47l-.318,1.657,11.964,4.373.5-1.591Z" transform="translate(-672.654 -842.47)" fill="#a6caa2"/>
            </g>
            <g id="Grupo_118" data-name="Grupo 118" transform="translate(181.448 45.632)">
              <path id="Trazado_185" data-name="Trazado 185" d="M1627.592,405.984l1.659,1.016.058-11.784c-.562,1.223-1.128,2.445-1.682,3.671Z" transform="translate(-1627.592 -395.216)" fill="#a3cedf"/>
            </g>
            <g id="Grupo_119" data-name="Grupo 119" transform="translate(181.311 73.162)">
              <path id="Trazado_186" data-name="Trazado 186" d="M1626.823,561.628q.834-1.379,1.678-2.75l.036-7.286-1.659-1.016Z" transform="translate(-1626.823 -550.576)" fill="#a3cedf"/>
            </g>
            <g id="Grupo_120" data-name="Grupo 120" transform="translate(149.594 125.207)">
              <path id="Trazado_187" data-name="Trazado 187" d="M1460.408,844.277l-11.988,4.645c-.2.671-.4,1.343-.591,2.014l12.958-5.021c.148-.42.3-.838.443-1.26Z" transform="translate(-1447.83 -844.277)" fill="#a3cedf"/>
            </g>
            <g id="Grupo_121" data-name="Grupo 121" transform="translate(25.809 8.954)">
              <path id="Trazado_188" data-name="Trazado 188" d="M757.434,192.4l.315-1.645-8.158-2.526-.315,1.645Z" transform="translate(-749.276 -188.227)" fill="#fff"/>
            </g>
            <g id="Grupo_122" data-name="Grupo 122" transform="translate(4.155 121.934)">
              <path id="Trazado_189" data-name="Trazado 189" d="M627.4,825.811l-.318,1.657,5.435,1.987.315-1.658Z" transform="translate(-627.078 -825.811)" fill="#fff"/>
            </g>
            <g id="Grupo_123" data-name="Grupo 123" transform="translate(9.59 123.92)">
              <path id="Trazado_190" data-name="Trazado 190" d="M658.061,837.015l-.315,1.658,2.642.966.318-1.657Z" transform="translate(-657.746 -837.015)" fill="#fff"/>
            </g>
            <g id="Grupo_124" data-name="Grupo 124" transform="translate(61.645 127.819)">
              <path id="Trazado_191" data-name="Trazado 191" d="M951.891,859.324l-.379,1.976.709-.306.379-1.976Z" transform="translate(-951.512 -859.018)" fill="#fff"/>
            </g>
            <g id="Grupo_125" data-name="Grupo 125" transform="translate(57.644 128.125)">
              <path id="Trazado_192" data-name="Trazado 192" d="M929.31,862.473l-.379,1.976,4-1.727.379-1.976Z" transform="translate(-928.931 -860.746)" fill="#fff"/>
            </g>
            <g id="Grupo_126" data-name="Grupo 126" transform="translate(162.995 122.503)">
              <path id="Trazado_193" data-name="Trazado 193" d="M1529.611,829.02l-5.89,2.282c-.088.267-.175.534-.265.8l1.284.59,6.588-2.552.11-.275Z" transform="translate(-1523.457 -829.02)" fill="#fff"/>
            </g>
            <g id="Grupo_127" data-name="Grupo 127" transform="translate(0.539 44.632)">
              <path id="Trazado_194" data-name="Trazado 194" d="M608.375,390.335l-1.659-.766-.047,6.279,1.659.763Z" transform="translate(-606.668 -389.569)" fill="#fff"/>
            </g>
            <g id="Grupo_128" data-name="Grupo 128" transform="translate(162.172 124.785)">
              <path id="Trazado_195" data-name="Trazado 195" d="M1519.636,842.7c.09-.266.176-.533.265-.8l-1.087.421Z" transform="translate(-1518.813 -841.899)" fill="#fff"/>
            </g>
            <g id="Grupo_129" data-name="Grupo 129" transform="translate(170.977 98.743)">
              <path id="Trazado_196" data-name="Trazado 196" d="M1578.675,714.048l-9.431,3.654-.738,1.839.274.126,11.554-4.477.1-20.254a16.13,16.13,0,0,0-1.673,1.84Z" transform="translate(-1568.506 -694.937)" fill="#a6caa2"/>
            </g>
            <g id="Grupo_130" data-name="Grupo 130" transform="translate(170.867 123.348)">
              <path id="Trazado_197" data-name="Trazado 197" d="M1567.884,834.063l.384-.149-.273-.126Z" transform="translate(-1567.884 -833.788)" fill="#a6caa2"/>
            </g>
            <g id="Grupo_131" data-name="Grupo 131" transform="translate(80.122 118.142)">
              <path id="Trazado_198" data-name="Trazado 198" d="M1055.782,806.581l2.209.859,5-2.159-2.183-.871Z" transform="translate(-1055.782 -804.412)" fill="#fff"/>
            </g>
            <g id="Grupo_132" data-name="Grupo 132" transform="translate(117.966 131.23)">
              <path id="Trazado_199" data-name="Trazado 199" d="M1282.986,884.961l1.04.509,1.714-.664-16.395-6.538Z" transform="translate(-1269.345 -878.267)" fill="#fff"/>
            </g>
            <g id="Grupo_133" data-name="Grupo 133" transform="translate(97.337 119.569)">
              <path id="Trazado_200" data-name="Trazado 200" d="M1153.574,812.463l-.645,1.538,5.229,2.566.552-1.583Z" transform="translate(-1152.929 -812.463)" fill="#fff"/>
            </g>
            <g id="Grupo_134" data-name="Grupo 134" transform="translate(0.773 12.866)">
              <path id="Trazado_201" data-name="Trazado 201" d="M609.7,211.122l-1.658-.817-.053,7,1.659.717Z" transform="translate(-607.992 -210.305)" fill="#fff"/>
            </g>
            <g id="Grupo_135" data-name="Grupo 135" transform="translate(0.077 107.026)">
              <path id="Trazado_202" data-name="Trazado 202" d="M605.763,742.252l-1.661-.573-.037,4.834,1.661.591Z" transform="translate(-604.065 -741.679)" fill="#fff"/>
            </g>
            <g id="Grupo_136" data-name="Grupo 136" transform="translate(0.292 78.673)">
              <path id="Trazado_203" data-name="Trazado 203" d="M606.976,582.044l-1.662-.369-.036,4.809,1.662.38Z" transform="translate(-605.277 -581.676)" fill="#fff"/>
            </g>
            <g id="Grupo_137" data-name="Grupo 137" transform="translate(144.833 9.384)">
              <path id="Trazado_204" data-name="Trazado 204" d="M1429.536,192.716l.963-2.061-8.595,2.779-.939,2.054Z" transform="translate(-1420.965 -190.655)" fill="#fff"/>
            </g>
            <g id="Grupo_138" data-name="Grupo 138" transform="translate(181.643 3.825)">
              <path id="Trazado_205" data-name="Trazado 205" d="M1628.758,159.282l-.062,12.653,1.684-4.034.042-8.578-.681-.017Z" transform="translate(-1628.696 -159.282)" fill="#fff"/>
            </g>
            <g id="Grupo_139" data-name="Grupo 139" transform="translate(57.248 9.221)">
              <path id="Trazado_206" data-name="Trazado 206" d="M935.54,191.62l.482-1.883-8.875,2.664-.452,1.874Z" transform="translate(-926.695 -189.737)" fill="#fff"/>
            </g>
            <g id="Grupo_140" data-name="Grupo 140" transform="translate(24.195 129.325)">
              <path id="Trazado_207" data-name="Trazado 207" d="M759.375,874.359l-.366-.134-18.343-6.7-.5,1.592,18.191,6.65,1.86.045,4.433-1.913.192-1.9Z" transform="translate(-740.17 -867.52)" fill="#f4ebe1"/>
            </g>
            <g id="Grupo_141" data-name="Grupo 141" transform="translate(73.517 4.582)">
              <path id="Trazado_208" data-name="Trazado 208" d="M1026.665,165.4l.354-1.845-8.512,2.555,1.906,1.166Z" transform="translate(-1018.506 -163.558)" fill="#f2d263"/>
            </g>
            <g id="Grupo_142" data-name="Grupo 142" transform="translate(86.26 1.641)">
              <path id="Trazado_209" data-name="Trazado 209" d="M1098.012,148.089l-1.843-1.128-.178,0-5.215,1.565-.354,1.845Z" transform="translate(-1090.422 -146.957)" fill="#f2d263"/>
            </g>
            <g id="Grupo_143" data-name="Grupo 143" transform="translate(181.366 56.4)">
              <path id="Trazado_210" data-name="Trazado 210" d="M1627.129,472.744l1.659,1.016L1628.87,457l-1.659-1.016Z" transform="translate(-1627.129 -455.981)" fill="#f2d263"/>
            </g>
            <g id="Grupo_144" data-name="Grupo 144" transform="translate(81.676 3.206)">
              <path id="Trazado_211" data-name="Trazado 211" d="M1069.134,157.636l.354-1.845-4.585,1.376-.354,1.845Z" transform="translate(-1064.55 -155.791)" fill="#f2d263"/>
            </g>
            <g id="Grupo_145" data-name="Grupo 145" transform="translate(177.302 2.292)">
              <path id="Trazado_212" data-name="Trazado 212" d="M1608.6,152.163l.008-1.533-4.41,1.426,4.215.1Z" transform="translate(-1604.199 -150.63)" fill="none"/>
            </g>
            <g id="Grupo_146" data-name="Grupo 146" transform="translate(130.394 46.126)">
              <path id="Trazado_213" data-name="Trazado 213" d="M1367.176,410.786,1346.291,398l-6.808,14.573,22.225,11.067Z" transform="translate(-1339.483 -398)" fill="#f4ebe1"/>
            </g>
            <g id="Grupo_147" data-name="Grupo 147" transform="translate(1.674 112.45)">
              <path id="Trazado_214" data-name="Trazado 214" d="M613.14,772.29l-.064,8.461,2.8,1.023,1.527-7.968Z" transform="translate(-613.076 -772.29)" fill="#f4ebe1"/>
            </g>
            <g id="Grupo_148" data-name="Grupo 148" transform="translate(72.324 40.956)">
              <path id="Trazado_215" data-name="Trazado 215" d="M1060.836,393.382l-42-24.557-7.056,36.817,35.879,16.575Z" transform="translate(-1011.775 -368.824)" fill="#f4ebe1"/>
            </g>
            <g id="Grupo_149" data-name="Grupo 149" transform="translate(66.048 83.411)">
              <path id="Trazado_216" data-name="Trazado 216" d="M981.551,608.411l-5.2,27.114,19.1,7.618,5.28-2.279,7.553,3.706,8.39-20.011Z" transform="translate(-976.355 -608.411)" fill="#f4ebe1"/>
            </g>
            <g id="Grupo_150" data-name="Grupo 150" transform="translate(2.485 3.402)">
              <path id="Trazado_217" data-name="Trazado 217" d="M638.179,178.682l2.8-14.59-23.246-7.2-.078,10.281L638.424,177.4Z" transform="translate(-617.651 -156.895)" fill="#f4ebe1"/>
            </g>
            <g id="Grupo_151" data-name="Grupo 151" transform="translate(62.733 114.537)">
              <path id="Trazado_218" data-name="Trazado 218" d="M957.653,797.347l17.389-7.506L960.2,784.066Z" transform="translate(-957.653 -784.066)" fill="#f4ebe1"/>
            </g>
            <g id="Grupo_152" data-name="Grupo 152" transform="translate(1.991 51.673)">
              <path id="Trazado_219" data-name="Trazado 219" d="M629.536,435.956l-14.466-6.649-.207,27.369,10.265,2.278Z" transform="translate(-614.863 -429.307)" fill="#f4ebe1"/>
            </g>
            <g id="Grupo_153" data-name="Grupo 153" transform="translate(143.31)">
              <path id="Trazado_220" data-name="Trazado 220" d="M1432.819,183.27l18.928-41.723.7-3.849-29.985,11.445-10.094,21.607Z" transform="translate(-1412.369 -137.698)" fill="#f4ebe1"/>
            </g>
            <g id="Grupo_154" data-name="Grupo 154" transform="translate(1.775 83.862)">
              <path id="Trazado_221" data-name="Trazado 221" d="M623.227,613.106l-9.4-2.147-.18,23.737,5.108,1.762Z" transform="translate(-613.644 -610.958)" fill="#f4ebe1"/>
            </g>
            <g id="Grupo_155" data-name="Grupo 155" transform="translate(109.522 61.758)">
              <path id="Trazado_222" data-name="Trazado 222" d="M1267.444,504.093l-28.579-11.014L1225.7,521.268l-4-1.85,45.271,20.914c3.2-8.928,6.751-17.736,9.958-26.213q4.082-10.794,8.527-21.447l-10.54-6.452Z" transform="translate(-1221.692 -486.219)" fill="#f4ebe1"/>
            </g>
            <g id="Grupo_156" data-name="Grupo 156" transform="translate(80.37 13.901)">
              <path id="Trazado_223" data-name="Trazado 223" d="M1101.657,260.181l6.92-15.139-47.2-28.9-4.195,21.889Z" transform="translate(-1057.179 -216.145)" fill="#f4ebe1"/>
            </g>
            <g id="Grupo_157" data-name="Grupo 157" transform="translate(164.655 84.214)">
              <path id="Trazado_224" data-name="Trazado 224" d="M1532.824,649.158l4.495,2.076,2.566-.994,4.626-11.532a38.1,38.1,0,0,1,4.89-9.393l.08-16.369c-5.535,9.157-10.663,18.578-14.21,28.655C1534.392,644.1,1533.613,646.629,1532.824,649.158Z" transform="translate(-1532.824 -612.946)" fill="#f4ebe1"/>
            </g>
            <g id="Grupo_158" data-name="Grupo 158" transform="translate(168.328 16.477)">
              <path id="Trazado_225" data-name="Trazado 225" d="M1564.215,269.1q1.236-2.8,2.493-5.591l.161-32.827-13.315,31.891Z" transform="translate(-1553.553 -230.684)" fill="#f4ebe1"/>
            </g>
            <g id="Grupo_159" data-name="Grupo 159" transform="translate(2.245 20.586)">
              <path id="Trazado_226" data-name="Trazado 226" d="M636.308,262.434l-19.822-8.561-.187,24.812,15.521,7.17Z" transform="translate(-616.299 -253.873)" fill="#f4ebe1"/>
            </g>
            <g id="Grupo_160" data-name="Grupo 160" transform="translate(93.85 2.184)">
              <path id="Trazado_227" data-name="Trazado 227" d="M1184.237,162.055l-11.772,3.807-37.248-15.84-1.963.589,43.922,26.889Z" transform="translate(-1133.253 -150.022)" fill="#f4ebe1"/>
            </g>
            <g id="Grupo_161" data-name="Grupo 161" transform="translate(25.705 13.125)">
              <path id="Trazado_228" data-name="Trazado 228" d="M767.839,263.723,780.231,212.4l-10.78,3.236-12.5-3.87-8.262,43.111Z" transform="translate(-748.688 -211.764)" fill="#f4ebe1"/>
            </g>
            <g id="Grupo_162" data-name="Grupo 162" transform="translate(103.118 101.381)">
              <path id="Trazado_229" data-name="Trazado 229" d="M1192.773,709.822l-7.22,20.708,29.221,14.339.385.188,17.46-6.765q1.309-4.437,2.814-8.861Z" transform="translate(-1185.553 -709.822)" fill="#f4ebe1"/>
            </g>
            <g id="Grupo_163" data-name="Grupo 163" transform="translate(51.491 8.304)">
              <path id="Trazado_230" data-name="Trazado 230" d="M911.074,252.195l12.342-64.405-5.275-3.229-9.329,2.8-14.6,57.044Z" transform="translate(-894.211 -184.56)" fill="#f4ebe1"/>
            </g>
            <g id="Grupo_164" data-name="Grupo 164" transform="translate(12.549 61.973)">
              <path id="Trazado_231" data-name="Trazado 231" d="M686.5,487.433l-12.056,62.913,12.143,4.439,7.772-24.9,18.3,10.689-1.893,18.684,9.151-3.95,9.25-48.267Z" transform="translate(-674.445 -487.433)" fill="#a6caa2"/>
            </g>
            <g id="Grupo_165" data-name="Grupo 165" transform="translate(178.989 49.304)">
              <path id="Trazado_232" data-name="Trazado 232" d="M1616.177,423.03l.035-7.1q-1.261,2.789-2.493,5.591Z" transform="translate(-1613.719 -415.934)" fill="#a3cedf"/>
            </g>
            <g id="Grupo_166" data-name="Grupo 166" transform="translate(154.792 68.211)">
              <path id="Trazado_233" data-name="Trazado 233" d="M1487.126,544.078c-3.207,8.477-6.754,17.285-9.958,26.213l9.862,4.556c.789-2.529,1.569-5.062,2.447-7.557,3.547-10.077,8.675-19.5,14.21-28.655l.054-11.052-8.089-4.952Q1491.214,533.284,1487.126,544.078Z" transform="translate(-1477.169 -522.631)" fill="#a3cedf"/>
            </g>
            <g id="Grupo_167" data-name="Grupo 167" transform="translate(150.184 120.99)">
              <path id="Trazado_234" data-name="Trazado 234" d="M1451.164,829.343l11.988-4.645-9.173-4.217Q1452.477,824.9,1451.164,829.343Z" transform="translate(-1451.164 -820.482)" fill="#a3cedf"/>
            </g>
            <g id="Grupo_168" data-name="Grupo 168" transform="translate(17.766 10.599)">
              <path id="Trazado_235" data-name="Trazado 235" d="M708.376,216.06h0l-4.488,23.421,7.939,3.668,8.262-43.111-8.158-2.526-2.8,14.59Z" transform="translate(-703.888 -197.511)" fill="#fff"/>
            </g>
            <g id="Grupo_169" data-name="Grupo 169" transform="translate(4.473 58.323)">
              <path id="Trazado_236" data-name="Trazado 236" d="M641.06,466.831l-4.407,23,3,.666-3.234,4.176-.665-.152-4.475,23.352,1.153.4-2.035,4.207h0l-1.527,7.968,5.432,1.985,12-63.19Z" transform="translate(-628.87 -466.831)" fill="#fff"/>
            </g>
            <g id="Grupo_170" data-name="Grupo 170" transform="translate(9.905 60.73)">
              <path id="Trazado_237" data-name="Trazado 237" d="M671.518,480.415l-12,63.19,2.644.967,12.056-62.913Z" transform="translate(-659.523 -480.415)" fill="#fff"/>
            </g>
            <g id="Grupo_171" data-name="Grupo 171" transform="translate(65.443 83.136)">
              <path id="Trazado_238" data-name="Trazado 238" d="M972.944,634.008l.6.241,5.2-27.114-.6-.275Z" transform="translate(-972.944 -606.86)" fill="#fff"/>
            </g>
            <g id="Grupo_172" data-name="Grupo 172" transform="translate(62.024 114.302)">
              <path id="Trazado_239" data-name="Trazado 239" d="M956.3,782.736,953.65,796.56l.709-.306,2.545-13.282Z" transform="translate(-953.65 -782.736)" fill="#fff"/>
            </g>
            <g id="Grupo_173" data-name="Grupo 173" transform="translate(68.355 11.533)">
              <path id="Trazado_240" data-name="Trazado 240" d="M989.375,267.19l3.969,1.834,7.056-36.817-2.73-1.6,1.9-4.476,1.819.905,4.195-21.889-3.867-2.367Z" transform="translate(-989.375 -202.785)" fill="#fff"/>
            </g>
            <g id="Grupo_174" data-name="Grupo 174" transform="translate(58.023 81.586)">
              <path id="Trazado_241" data-name="Trazado 241" d="M937.41,630.706l.11-4.284.969.386,5.2-27.148-3.373-1.551-9.25,48.267,4-1.727,2.649-13.823Z" transform="translate(-931.069 -598.11)" fill="#fff"/>
            </g>
            <g id="Grupo_175" data-name="Grupo 175" transform="translate(2.198 45.398)">
              <path id="Trazado_242" data-name="Trazado 242" d="M631.6,401.064l-15.521-7.17-.048,6.275,14.466,6.649Z" transform="translate(-616.03 -393.894)" fill="#fff"/>
            </g>
            <g id="Grupo_176" data-name="Grupo 176" transform="translate(24.91 56.236)">
              <path id="Trazado_243" data-name="Trazado 243" d="M786.931,478.5l.717-3.74-16.863-7.79-.258,1.007-7.315-.188.938-3.884L745,455.055,744.2,459.2Z" transform="translate(-744.203 -455.055)" fill="#fff"/>
            </g>
            <g id="Grupo_177" data-name="Grupo 177" transform="translate(163.259 120.427)">
              <path id="Trazado_244" data-name="Trazado 244" d="M1524.95,821.661l5.89-2.282-4.495-2.076C1525.891,818.76,1525.43,820.215,1524.95,821.661Z" transform="translate(-1524.95 -817.303)" fill="#fff"/>
            </g>
            <g id="Grupo_178" data-name="Grupo 178" transform="translate(71.243 77.773)">
              <path id="Trazado_245" data-name="Trazado 245" d="M1042.637,593.168h0l-35.879-16.575-1.081,5.638,35.128,16.147h0l3.966,1.823h0l42.66,19.609c.581-1.71,1.183-3.416,1.794-5.119l-45.271-20.914Z" transform="translate(-1005.677 -576.593)" fill="#fff"/>
            </g>
            <g id="Grupo_179" data-name="Grupo 179" transform="translate(24.605 60.383)">
              <path id="Trazado_246" data-name="Trazado 246" d="M742.789,478.457l-.3,1.591,42.667,19.612.366-1.907Z" transform="translate(-742.484 -478.457)" fill="#fff"/>
            </g>
            <g id="Grupo_180" data-name="Grupo 180" transform="translate(152.998 115.871)">
              <path id="Trazado_247" data-name="Trazado 247" d="M1468.839,791.592q-.917,2.555-1.794,5.119l9.173,4.216,1.088-.421c.48-1.447.941-2.9,1.4-4.358Z" transform="translate(-1467.045 -791.592)" fill="#fff"/>
            </g>
            <g id="Grupo_181" data-name="Grupo 181" transform="translate(16.663 52.568)">
              <path id="Trazado_248" data-name="Trazado 248" d="M705.911,442.172l.795-4.147-7.939-3.668-1.1,5.754,5.237,2.407.3-1.571Z" transform="translate(-697.664 -434.358)" fill="#fff"/>
            </g>
            <g id="Grupo_182" data-name="Grupo 182" transform="translate(21.9 59.158)">
              <path id="Trazado_249" data-name="Trazado 249" d="M727.514,471.547l-.3,1.571,2.705,1.244.3-1.591Z" transform="translate(-727.216 -471.547)" fill="#fff"/>
            </g>
            <g id="Grupo_183" data-name="Grupo 183" transform="translate(67.638 75.939)">
              <path id="Trazado_250" data-name="Trazado 250" d="M986.048,566.244l-.716,3.74,3.378,1.525-.37,1.932.6.275,1.081-5.638Z" transform="translate(-985.331 -566.244)" fill="#fff"/>
            </g>
            <g id="Grupo_184" data-name="Grupo 184" transform="translate(67.272 79.679)">
              <path id="Trazado_251" data-name="Trazado 251" d="M983.633,587.35l-.366,1.907,3.373,1.551.37-1.932Z" transform="translate(-983.267 -587.35)" fill="#fff"/>
            </g>
            <g id="Grupo_185" data-name="Grupo 185" transform="translate(171.715 100.584)">
              <path id="Trazado_252" data-name="Trazado 252" d="M1572.67,726.248l9.431-3.654.085-17.271a38.1,38.1,0,0,0-4.89,9.393Z" transform="translate(-1572.67 -705.323)" fill="#a6caa2"/>
            </g>
            <g id="Grupo_186" data-name="Grupo 186" transform="translate(65.279 110.525)">
              <path id="Trazado_253" data-name="Trazado 253" d="M972.015,765.436l14.844,5.775,5.027-2.17-19.1-7.618Z" transform="translate(-972.015 -761.423)" fill="#fff"/>
            </g>
            <g id="Grupo_187" data-name="Grupo 187" transform="translate(64.673 110.284)">
              <path id="Trazado_254" data-name="Trazado 254" d="M968.6,764.08l.606.236.769-4.012-.6-.241Z" transform="translate(-968.598 -760.062)" fill="#fff"/>
            </g>
            <g id="Grupo_188" data-name="Grupo 188" transform="translate(64.364 109.897)">
              <path id="Trazado_255" data-name="Trazado 255" d="M966.962,757.881l-.11,4.284.309.12.77-4.018Z" transform="translate(-966.852 -757.881)" fill="#fff"/>
            </g>
            <g id="Grupo_189" data-name="Grupo 189" transform="translate(97.981 99.558)">
              <path id="Trazado_256" data-name="Trazado 256" d="M1164.958,699.533l-8.391,20.011,5.136,2.52,7.22-20.708Z" transform="translate(-1156.567 -699.533)" fill="#fff"/>
            </g>
            <g id="Grupo_190" data-name="Grupo 190" transform="translate(106.372 99.558)">
              <path id="Trazado_257" data-name="Trazado 257" d="M1203.917,699.533h0l3.966,1.823h0Z" transform="translate(-1203.917 -699.533)" fill="#fff"/>
            </g>
            <g id="Grupo_191" data-name="Grupo 191" transform="translate(2.433 13.683)">
              <path id="Trazado_258" data-name="Trazado 258" d="M637.937,226.42l.245-1.278-20.773-10.228-.052,6.9,19.822,8.561Z" transform="translate(-617.357 -214.914)" fill="#fff"/>
            </g>
            <g id="Grupo_192" data-name="Grupo 192" transform="translate(22.254 25.189)">
              <path id="Trazado_259" data-name="Trazado 259" d="M729.975,279.845l-.759,3.959h0Z" transform="translate(-729.217 -279.845)" fill="#fff"/>
            </g>
            <g id="Grupo_193" data-name="Grupo 193" transform="translate(1.738 107.599)">
              <path id="Trazado_260" data-name="Trazado 260" d="M618.582,746.676l-5.108-1.762-.037,4.851,4.262,1.516Z" transform="translate(-613.438 -744.914)" fill="#fff"/>
            </g>
            <g id="Grupo_194" data-name="Grupo 194" transform="translate(6 109.361)">
              <path id="Trazado_261" data-name="Trazado 261" d="M637.488,759.463l2.035-4.207-1.153-.4-.883,4.6Z" transform="translate(-637.488 -754.858)" fill="#fff"/>
            </g>
            <g id="Grupo_195" data-name="Grupo 195" transform="translate(1.954 79.042)">
              <path id="Trazado_262" data-name="Trazado 262" d="M624.959,586.035l-10.265-2.278-.036,4.82,9.4,2.147Z" transform="translate(-614.657 -583.757)" fill="#fff"/>
            </g>
            <g id="Grupo_196" data-name="Grupo 196" transform="translate(11.357 81.32)">
              <path id="Trazado_263" data-name="Trazado 263" d="M668.386,601.453l3.234-4.176-3-.666-.9,4.69Z" transform="translate(-667.721 -596.611)" fill="#fff"/>
            </g>
            <g id="Grupo_197" data-name="Grupo 197" transform="translate(124.848 42.799)">
              <path id="Trazado_264" data-name="Trazado 264" d="M1313.728,397.125l6.808-14.573-5.435-3.327-6.92,15.139Z" transform="translate(-1308.182 -379.224)" fill="#fff"/>
            </g>
            <g id="Grupo_198" data-name="Grupo 198" transform="translate(137.773 11.445)">
              <path id="Trazado_265" data-name="Trazado 265" d="M1386.658,223.895l10.094-21.607-8.571,2.771-7.061,15.446Z" transform="translate(-1381.121 -202.288)" fill="#fff"/>
            </g>
            <g id="Grupo_199" data-name="Grupo 199" transform="translate(108.203 65.513)">
              <path id="Trazado_266" data-name="Trazado 266" d="M1227.434,507.408l-13.181,28.835,1.318.609,4,1.85,13.169-28.189h0Z" transform="translate(-1214.253 -507.408)" fill="#fff"/>
            </g>
            <g id="Grupo_200" data-name="Grupo 200" transform="translate(108.203 94.348)">
              <path id="Trazado_267" data-name="Trazado 267" d="M1214.253,670.132l1.318.609-1.318-.609Z" transform="translate(-1214.253 -670.132)" fill="#fff"/>
            </g>
            <g id="Grupo_201" data-name="Grupo 201" transform="translate(163.76 3.062)">
              <path id="Trazado_268" data-name="Trazado 268" d="M1527.775,197.489l4.568,2.8,14.15-32.4.058-11.779.005-1.122Z" transform="translate(-1527.775 -154.979)" fill="#fff"/>
            </g>
            <g id="Grupo_202" data-name="Grupo 202" transform="translate(126.695 58.911)">
              <path id="Trazado_269" data-name="Trazado 269" d="M1347.186,490.873,1354.649,473l-4.65-2.847-5.467,12.855-22.225-11.067-3.7,7.919Z" transform="translate(-1318.607 -470.152)" fill="#fff"/>
            </g>
            <g id="Grupo_203" data-name="Grupo 203" transform="translate(79.38 35.79)">
              <path id="Trazado_270" data-name="Trazado 270" d="M1097.06,361.818l-44.478-22.147-.99,5.166,42,24.557Z" transform="translate(-1051.592 -339.671)" fill="#fff"/>
            </g>
            <g id="Grupo_204" data-name="Grupo 204" transform="translate(76.65 34.884)">
              <path id="Trazado_271" data-name="Trazado 271" d="M1038.088,334.561l-1.9,4.476,2.73,1.6.99-5.166Z" transform="translate(-1036.187 -334.561)" fill="#fff"/>
            </g>
            <g id="Grupo_205" data-name="Grupo 205" transform="translate(121.384 57.937)">
              <path id="Trazado_272" data-name="Trazado 272" d="M1293.948,475.336h0l3.7-7.919-5.547-2.762-3.463,7.576Z" transform="translate(-1288.637 -464.655)" fill="#fff"/>
            </g>
            <g id="Grupo_206" data-name="Grupo 206" transform="translate(44.856 11.104)">
              <path id="Trazado_273" data-name="Trazado 273" d="M863.4,257.407,878,200.363l-8.845,2.655-12.392,51.324Z" transform="translate(-856.765 -200.363)" fill="#fff"/>
            </g>
            <g id="Grupo_207" data-name="Grupo 207" transform="translate(43.918 65.083)">
              <path id="Trazado_274" data-name="Trazado 274" d="M858.788,509.054l.258-1.007-6.635-3.065-.938,3.884Z" transform="translate(-851.473 -504.982)" fill="#fff"/>
            </g>
            <g id="Grupo_208" data-name="Grupo 208" transform="translate(24.692 104.429)">
              <path id="Trazado_275" data-name="Trazado 275" d="M750.745,727.025l-7.772,24.9,18.343,6.7.366.134,5.471-2.362,1.893-18.684Z" transform="translate(-742.973 -727.025)" fill="#f4ebe1"/>
            </g>
            <g id="Grupo_209" data-name="Grupo 209" transform="translate(84.564 2.773)">
              <path id="Trazado_276" data-name="Trazado 276" d="M1080.852,164.474l47.2,28.9,6.005-13.136-43.923-26.889-7.59,2.278Z" transform="translate(-1080.852 -153.346)" fill="#f2d263"/>
            </g>
            <g id="Grupo_210" data-name="Grupo 210" transform="translate(75.422 6.427)">
              <path id="Trazado_277" data-name="Trazado 277" d="M1035.513,173.968l-6.253,1.877,5.275,3.229Z" transform="translate(-1029.259 -173.968)" fill="#f2d263"/>
            </g>
            <g id="Grupo_211" data-name="Grupo 211" transform="translate(162.737 48.368)">
              <path id="Trazado_278" data-name="Trazado 278" d="M1532.544,430.5q2.787-6.687,5.713-13.316l-10.661-6.527L1522,424.045Z" transform="translate(-1522.004 -410.655)" fill="#f2d263"/>
            </g>
            <g id="Grupo_212" data-name="Grupo 212" transform="translate(137.202 33.052)">
              <path id="Trazado_279" data-name="Trazado 279" d="M1398.787,350.081l5.673-13.339-20.45-12.52L1377.9,337.3Z" transform="translate(-1377.903 -324.222)" fill="#f2d263"/>
            </g>
            <g id="Grupo_213" data-name="Grupo 213" transform="translate(173.277 54.895)">
              <path id="Trazado_280" data-name="Trazado 280" d="M1581.482,460.8l8.089,4.952.082-16.762-2.458-1.505Q1584.268,454.115,1581.482,460.8Z" transform="translate(-1581.482 -447.487)" fill="#f2d263"/>
            </g>
            <g id="Grupo_214" data-name="Grupo 214" transform="translate(80.697 5.051)">
              <path id="Trazado_281" data-name="Trazado 281" d="M1062.894,175.052l1.7-8.85-4.584,1.376-.979,5.106Z" transform="translate(-1059.027 -166.202)" fill="#f2d263"/>
            </g>
            <g id="Grupo_215" data-name="Grupo 215" transform="translate(131.768 29.662)">
              <path id="Trazado_282" data-name="Trazado 282" d="M1358.775,308.481l-5.537-3.39-6.005,13.136,5.435,3.327Z" transform="translate(-1347.233 -305.091)" fill="#f2d263"/>
            </g>
            <g id="Grupo_216" data-name="Grupo 216" transform="translate(158.087 45.572)">
              <path id="Trazado_283" data-name="Trazado 283" d="M1500.41,411.06,1506,397.67l-4.568-2.8-5.673,13.339Z" transform="translate(-1495.76 -394.874)" fill="#f2d263"/>
            </g>
          </g>
          <g id="Grupo_220" data-name="Grupo 220" transform="translate(2.298 1.635)">
            <g id="Grupo_218" data-name="Grupo 218" transform="translate(0 1.543)" opacity="0.1">
              <path id="Trazado_284" data-name="Trazado 284" d="M657.564,168.44l-42.931-13.566L613.748,272.8l40.711,15.19Z" transform="translate(-613.748 -154.874)"/>
            </g>
            <g id="Grupo_219" data-name="Grupo 219" transform="translate(89.133)" opacity="0.1">
              <path id="Trazado_285" data-name="Trazado 285" d="M1158.308,162.339l-37.257-16.173-4.295,115.045,41.3,20.053Z" transform="translate(-1116.756 -146.166)"/>
            </g>
          </g>
          <g id="Grupo_221" data-name="Grupo 221" transform="translate(0 0)">
            <path id="Trazado_286" data-name="Trazado 286" d="M601.533,259.741l4.124,1.5,37.486,13.66c2.63.958,4.607-.536,7.118-1.616l8.829-3.8,17.5-7.528,7.691-3.309,4.73-2.036a12.875,12.875,0,0,0,2.071-.891,2.657,2.657,0,0,1,.4-.2,1.866,1.866,0,0,1,.481.251c2.709,1.9,6.415,3.138,9.411,4.6l7.857,3.843,18.611,9.1c1.327.649,2.651,1.3,3.979,1.946,1.535.745,1.831.688,3.484.049l9.565-3.694L783.521,256.7a1.072,1.072,0,0,0,.762-.99q.11-22.441.22-44.881.119-24.259.238-48.518.06-12.166.119-24.331a1.04,1.04,0,0,0-1.3-1l-36.448,11.747-8.761,2.824a24.553,24.553,0,0,1-4.284,1.422l-.076-.019a7.969,7.969,0,0,1-1.2-.51l-22.16-9.394-9.124-3.868c-1.768-.749-3.512-1.97-5.417-1.6-6.04,1.179-12.082,3.615-17.985,5.381l-18.031,5.395-8.725,2.61c-.858.257-1.757.47-2.6.778-.3.111-1.107.2-.9.267a31.358,31.358,0,0,1-4.39-1.412L603,138.121a1.041,1.041,0,0,0-1.31.988q-.176,23.228-.352,46.456-.178,23.666-.358,47.331-.1,12.924-.2,25.847A1.062,1.062,0,0,0,601.533,259.741Zm89.836-4.245c-.249.025-.22-.047,0,0Zm-47.846-102.71a20.273,20.273,0,0,0,4.136,1.277,9.4,9.4,0,0,0,3.063-.75l6.374-1.907,17.314-5.18L691.881,141c1.322-.4,2.654-.765,3.967-1.187,1.172-.377,1.011-.3,1.39-.212A18.9,18.9,0,0,1,700,140.772l5.742,2.434,23.584,10c1.424.6,3.355,1.905,4.939,1.832,1.271-.06,2.79-.9,4-1.289l6.656-2.145,37.867-12.2q-.107,21.96-.215,43.921-.116,23.7-.232,47.406-.06,12.142-.119,24.283L749.5,267.645l-11.229,4.337-3.355,1.3c-1.549.6-1.218.629-2.65-.071q-8.771-4.288-17.541-8.58L697.507,256.2c-1.62-.792-3.536-2.151-5.295-2.59-1.309-.327-2.252.363-3.521.909l-6.821,2.935-19.037,8.191-8.167,3.514c-2.768,1.191-6.254,3.354-9.211,3.963-1.988.409-6.106-1.793-8.4-2.63l-10.949-3.99-19.891-7.248-3.367-1.227q.165-21.7.329-43.4.2-25.763.39-51.526.086-11.3.171-22.6l33.709,10.4Z" transform="translate(-600.781 -136.94)" fill="#e0e0e0"/>
          </g>
        </g>
        <g id="Grupo_227" data-name="Grupo 227" transform="translate(214.941 162.291)">
          <g id="Grupo_226" data-name="Grupo 226">
            <g id="Grupo_225" data-name="Grupo 225">
              <g id="Grupo_223" data-name="Grupo 223">
                <path id="Trazado_287" data-name="Trazado 287" d="M369.689,318.693c-4.053,16.752-45.553,53.5-45.553,53.5s-20.115-51.654-16.063-68.407a31.7,31.7,0,0,1,61.616,14.906Z" transform="translate(-307.534 -279.999)" fill="#bd242b"/>
              </g>
              <g id="Grupo_224" data-name="Grupo 224" transform="translate(13.74 12.144)">
                <ellipse id="Elipse_18" data-name="Elipse 18" cx="14.669" cy="14.899" rx="14.669" ry="14.899" transform="translate(0 28.516) rotate(-76.402)" fill="#fff"/>
              </g>
            </g>
          </g>
        </g>
        <g id="Grupo_229" data-name="Grupo 229" transform="translate(212.149 235.197)">
          <g id="Grupo_228" data-name="Grupo 228">
            <path id="Trazado_288" data-name="Trazado 288" d="M310.343,754.6c.158-3.423,3.351-40.8,4.173-41.976,1.127-1.617,8.814-9.823,9.511-10.327l-.37-3.447-12.5,11.694-4.37-12.095,4.456-4.577-1.664-2.435-7.8.833-1.075,3.1.359,4.375c.728,1.521,4.133,8.613,4.133,8.613l-13.415,43.263S310.343,754.6,310.343,754.6Z" transform="translate(-291.779 -691.434)" fill="#ebceb1"/>
          </g>
        </g>
        <g id="Grupo_230" data-name="Grupo 230" transform="translate(373.235 257.905)">
          <path id="Trazado_289" data-name="Trazado 289" d="M1223.6,824.07a1.516,1.516,0,0,0-.464-1.287,6.446,6.446,0,0,0-1.59-1.069c-.9-.328-1.547.333-2.505.381-.877.043-.7-.438-1.224-1.033a2.2,2.2,0,0,0-3.265-.194,2.886,2.886,0,0,0-4.307-.461s-1.408-1.927-3.474.109c-.927.914-1.144,3.842-1.338,5.08a47.039,47.039,0,0,0-.533,9.5c.032.622.678,2.24.488,2.784l-2.935,8.417a25.546,25.546,0,0,0-1.534,4.4c-.1.721-.253.517.416,1.184a12.12,12.12,0,0,0,4.593,2.618,13.506,13.506,0,0,0,4.39.712,2.366,2.366,0,0,0,2.112-.836,3.012,3.012,0,0,0,.285-1.139c.5-3.61.489-7.227.762-10.917l5.791-4.758,0-.015,2.221-6.837,1.462-4.5A9.832,9.832,0,0,0,1223.6,824.07Z" transform="translate(-1200.832 -819.582)" fill="#af8b7f"/>
        </g>
        <g id="Grupo_231" data-name="Grupo 231" transform="translate(195 261.416)">
          <path id="Trazado_290" data-name="Trazado 290" d="M195,915.875l21.366-76.481,21.305,11.5-5.814,64.983Z" transform="translate(-195 -839.394)" fill="#293a53"/>
        </g>
        <g id="Grupo_232" data-name="Grupo 232" transform="translate(230.956 235.285)">
          <path id="Trazado_291" data-name="Trazado 291" d="M411.351,702.7l-.459-5.77-8.126-5-4.856,7.226,3.453,9.176,2.19,2.661Z" transform="translate(-397.91 -691.93)" fill="#ebceb1"/>
        </g>
        <g id="Grupo_244" data-name="Grupo 244" transform="translate(253.654 253.372)">
          <g id="Grupo_233" data-name="Grupo 233" transform="translate(9.214 0)">
            <path id="Trazado_292" data-name="Trazado 292" d="M609.4,809.327l3.334-9.833L602.631,794l-1.772,3.19,3.19,4.253-9.214,3.544-9.569-3.9,2.3,10.455-7.442,32.428L578,854.426l21.973,1.063,2.481-15.239-.709-28.352Z" transform="translate(-578 -794)" fill="#ecc192"/>
          </g>
          <g id="Grupo_234" data-name="Grupo 234" transform="translate(0 57.768)">
            <path id="Trazado_293" data-name="Trazado 293" d="M561.618,1146.757v-25.34L530.607,1120,526,1146.757Z" transform="translate(-526 -1120)" fill="#c19548"/>
          </g>
          <g id="Grupo_243" data-name="Grupo 243" transform="translate(0.148 59.026)">
            <g id="Grupo_235" data-name="Grupo 235" transform="translate(19.126 6.098)">
              <path id="Trazado_294" data-name="Trazado 294" d="M647.594,1161.517a6.951,6.951,0,0,0-2.564.461,8.63,8.63,0,0,0-2.061,1.241c-.121.084-.033.274.1.283.776.054,1.54.236,2.331.284a18.588,18.588,0,0,0,2.414-.018c1.089-.073,2.2-.293,3.3-.4q-.651.6-1.277,1.23a11.31,11.31,0,0,0-4.364-.67,8.262,8.262,0,0,0-2.828.706,10.737,10.737,0,0,0-2.4,1.62c-.14.11-.007.291.138.279.914-.073,1.864-.015,2.793-.072a25.149,25.149,0,0,0,2.6-.3c1.056-.174,2.119-.452,3.185-.659q-.512.547-1,1.118a10.97,10.97,0,0,0-4.29.048,8.215,8.215,0,0,0-2.619,1.115,10.615,10.615,0,0,0-1.13.8,13.375,13.375,0,0,0-1.049,1.225c-.1.108-.035.322.138.279.854-.211,1.755-.291,2.623-.494.894-.209,1.741-.458,2.611-.754.918-.312,1.831-.705,2.754-1.056-.122.154-.244.306-.364.463-.3.39-.582.786-.86,1.186a13.758,13.758,0,0,0-4.426.719,10.645,10.645,0,0,0-3.088,1.718,12.762,12.762,0,0,0-1.22,1.07c-.406.414-.665.923-1.029,1.375-.108.134.069.292.2.235.993-.419,2.075-.714,3.092-1.1.981-.376,1.93-.774,2.885-1.212.857-.393,1.711-.835,2.575-1.255q-.387.634-.747,1.285a14.973,14.973,0,0,0-5.063,1.99,10.792,10.792,0,0,0-2.561,2.377,13.85,13.85,0,0,0-1.6,2.889c-.075.158.144.257.258.173.45-.332.961-.532,1.418-.851s.889-.645,1.342-.956c.866-.6,1.7-1.2,2.524-1.856,1-.787,1.976-1.658,3-2.452q-.239.481-.466.971c-.092.2-.182.4-.273.6a17.134,17.134,0,0,0-4.851,3.9,10.567,10.567,0,0,0-1.177,1.857H639.2c.1-.148.2-.3.3-.447.851-1.313,1.622-2.733,2.535-4.026-.1.241-.2.482-.289.724a18.452,18.452,0,0,0-1.979,3.748h2.014c.04-.384.079-.768.123-1.152q.172-.3.347-.592a12.074,12.074,0,0,0-.2,1.744h2.143c-.193-1.325-.444-2.668-.556-4.006l.245-.391a11.921,11.921,0,0,0,.3,3.376c.087.35.188.689.3,1.021h2.372c-.162-.544-.333-1.086-.515-1.63-.474-1.42-1.063-2.849-1.49-4.3q.431-.677.869-1.349a12.723,12.723,0,0,0,.263,4.1,10.59,10.59,0,0,0,1.307,3.135l.031.049h1.919c-.05-.222-.1-.443-.16-.662-.28-1.061-.59-2.09-.937-3.131-.52-1.558-1.178-3.127-1.61-4.729q.329-.5.661-.992a13.675,13.675,0,0,0,.953,4.291,10.455,10.455,0,0,0,1.841,2.937,14.14,14.14,0,0,0,1.119,1.151v-3.219c-.278-.578-.565-1.15-.871-1.721-.776-1.451-1.7-2.882-2.4-4.388.181-.266.361-.534.543-.8q.223-.326.449-.651a11.841,11.841,0,0,0,.823,3.483,9.559,9.559,0,0,0,1.457,2.439v-4.412c-.506-.87-1.035-1.741-1.491-2.638q.52-.737,1.055-1.468a13.044,13.044,0,0,0,.436,3.131v-7.128A8.51,8.51,0,0,0,647.594,1161.517Z" transform="translate(-634.77 -1161.516)" fill="#5a662f"/>
            </g>
            <g id="Grupo_236" data-name="Grupo 236" transform="translate(29.782 3.746)">
              <path id="Trazado_295" data-name="Trazado 295" d="M697.278,1148.513a9.058,9.058,0,0,0-1.173.416,9.962,9.962,0,0,0-1.113.791.162.162,0,0,0,.062.305c.789.1,1.559.32,2.363.412a15.942,15.942,0,0,0,2.259.081c.3-.008.611-.029.918-.056V1148.4a6.624,6.624,0,0,0-.788-.123A6.324,6.324,0,0,0,697.278,1148.513Z" transform="translate(-694.906 -1148.244)" fill="#5a662f"/>
            </g>
            <g id="Grupo_237" data-name="Grupo 237" transform="translate(2.523)">
              <path id="Trazado_296" data-name="Trazado 296" d="M542.95,1139.631a6.037,6.037,0,0,0,1.825,1.1,7.835,7.835,0,0,0,2.074.4c.13.016.154-.147.073-.215-.51-.434-.97-.954-1.48-1.405a18.319,18.319,0,0,0-1.5-1.188c-.635-.455-1.326-.861-1.983-1.3q.546-.018,1.094-.059a8.007,8.007,0,0,0,2.24,2.19,5.994,5.994,0,0,0,1.928.776,7.741,7.741,0,0,0,1,.17,9.724,9.724,0,0,0,1.175-.091c.107,0,.184-.148.073-.215-.55-.332-1.057-.756-1.609-1.1-.569-.354-1.136-.663-1.737-.959-.635-.313-1.309-.582-1.966-.877.142-.017.284-.032.426-.051.355-.048.707-.105,1.057-.169a10.04,10.04,0,0,0,2.657,1.914,7.775,7.775,0,0,0,2.482.708,9.3,9.3,0,0,0,1.182.078c.423,0,.82-.133,1.242-.178.125-.013.115-.186.016-.227-.729-.3-1.44-.7-2.167-1.027-.7-.312-1.4-.6-2.115-.864-.645-.239-1.313-.453-1.976-.683q.527-.127,1.047-.277a10.928,10.928,0,0,0,3.642,1.587,7.907,7.907,0,0,0,2.55.1,10.106,10.106,0,0,0,2.32-.664c.121-.043.058-.207-.044-.223-.4-.061-.771-.222-1.171-.293s-.792-.126-1.187-.2c-.755-.14-1.5-.254-2.262-.345-.922-.11-1.874-.165-2.811-.282.247-.083.494-.169.74-.26.151-.056.3-.114.453-.171a12.518,12.518,0,0,0,4.521.489,7.665,7.665,0,0,0,2.433-.7,8.322,8.322,0,0,0,1.131-.617c.343-.235.613-.545.939-.8a.119.119,0,0,0-.1-.2c-.745.134-1.532.166-2.287.28-.774.116-1.532.246-2.3.41-1.117.239-2.249.573-3.388.769.175-.073.35-.147.523-.225a11.187,11.187,0,0,0,3.835-1.4,7.731,7.731,0,0,0,1.819-1.576,10,10,0,0,0,.787-1.039,12.2,12.2,0,0,0,.554-1.215.118.118,0,0,0-.176-.153c-.622.445-1.321.816-1.963,1.246-.664.445-1.3.9-1.934,1.381-.557.426-1.105.886-1.664,1.331l-.483.125a8.318,8.318,0,0,0,1.508-1.312,7.97,7.97,0,0,0,1.356-2.08,10.125,10.125,0,0,0,.642-2.372c.026-.129-.151-.151-.215-.073-.289.351-.653.618-.949.964-.232.272-.457.548-.7.816-.511.575-.986,1.156-1.458,1.765-.693.9-1.338,1.869-2.077,2.743l-.326.074a8.691,8.691,0,0,0,1.586-1.9,7.731,7.731,0,0,0,.944-2.294c.083-.357.167-.724.216-1.087a10.436,10.436,0,0,0-.026-1.414c0-.107-.155-.186-.215-.073-.362.67-.828,1.3-1.215,1.967-.4.692-.775,1.384-1.133,2.1-.489.979-.926,2.02-1.457,2.993q-.57.126-1.142.247a9.286,9.286,0,0,0,1.981-2.252,7.736,7.736,0,0,0,.944-2.294c.083-.357.167-.724.216-1.088a10.468,10.468,0,0,0-.026-1.414c0-.106-.155-.185-.215-.073-.362.67-.828,1.3-1.215,1.967-.4.692-.775,1.384-1.133,2.1-.537,1.073-1.007,2.223-1.611,3.274l-.853.171a10,10,0,0,0,1.723-2.708,7.636,7.636,0,0,0,.566-2.467,10.215,10.215,0,0,0,.016-1.188,11.854,11.854,0,0,0-.256-1.318.118.118,0,0,0-.227-.016c-.243.718-.6,1.419-.863,2.136-.274.736-.527,1.462-.755,2.213-.349,1.15-.612,2.365-1.026,3.506l-.693.132-.568.1a8.636,8.636,0,0,0,1.374-2.224,6.944,6.944,0,0,0,.528-2.281,8.357,8.357,0,0,0,0-1.256c-.039-.406-.184-.779-.258-1.181a.119.119,0,0,0-.227-.016c-.233.655-.572,1.293-.822,1.951-.271.712-.52,1.412-.74,2.142-.3.994-.523,2.041-.849,3.041q-.648.111-1.3.213a8.622,8.622,0,0,0,1.693-2.442,6.354,6.354,0,0,0,.538-2.15,8.075,8.075,0,0,0,.021-1.133,11.118,11.118,0,0,0-.245-1.175.118.118,0,0,0-.227-.016c-.245.615-.591,1.2-.849,1.823-.174.417-.336.829-.488,1.246l-.908,5.275A8.148,8.148,0,0,0,542.95,1139.631Z" transform="translate(-541.073 -1127.103)" fill="#5a662f"/>
            </g>
            <g id="Grupo_238" data-name="Grupo 238" transform="translate(2.059 10.817)">
              <path id="Trazado_297" data-name="Trazado 297" d="M540.014,1191.092a6.293,6.293,0,0,0,1.7.423c.106.02.158-.124.1-.2-.373-.428-.673-.918-1.057-1.35a13.576,13.576,0,0,0-1.256-1.237c-.232-.2-.477-.395-.726-.585l-.321,1.863A5.075,5.075,0,0,0,540.014,1191.092Z" transform="translate(-538.456 -1188.147)" fill="#5a662f"/>
            </g>
            <g id="Grupo_239" data-name="Grupo 239" transform="translate(15.169 23.245)">
              <path id="Trazado_298" data-name="Trazado 298" d="M613.076,1258.4c-.17.711-.441,1.417-.636,2.135h1.545a9.748,9.748,0,0,0-.65-2.172C613.284,1258.22,613.1,1258.28,613.076,1258.4Z" transform="translate(-612.44 -1258.279)" fill="#5a662f"/>
            </g>
            <g id="Grupo_240" data-name="Grupo 240" transform="translate(0 14.467)">
              <path id="Trazado_299" data-name="Trazado 299" d="M530.89,1219.1c1.259-.01,2.555-.109,3.83-.073q.308.374.612.751h2.427c-.212-.243-.426-.484-.647-.719a12.587,12.587,0,0,0-.275-4.567,9.088,9.088,0,0,0-1.235-2.667,11.662,11.662,0,0,0-1.894-2.034c-.107-.1-.243.048-.206.161.148.447.175.907.311,1.356s.285.879.416,1.322c.251.848.522,1.671.828,2.5.37,1.005.812,2.012,1.182,3.036-.215-.211-.433-.42-.656-.625-.136-.126-.274-.251-.412-.375a14.416,14.416,0,0,0-1.862-4.9,8.828,8.828,0,0,0-1.993-2.13,9.586,9.586,0,0,0-1.225-.839c-.42-.229-.879-.345-1.316-.544-.125-.057-.234.107-.156.209.527.694.971,1.485,1.482,2.2.523.734,1.053,1.443,1.621,2.144.829,1.022,1.764,2.009,2.561,3.075-.167-.141-.334-.282-.5-.42a12.887,12.887,0,0,0-3.437-3.206,9.012,9.012,0,0,0-2.28-.971l-.3,1.767c.549.295,1.1.577,1.67.85.728.349,1.487.671,2.236,1.013q.192.214.381.43a9.556,9.556,0,0,0-2.135-.863,9.153,9.153,0,0,0-2.345-.313l-.288,1.671c.77.194,1.532.36,2.316.509,1.28.243,2.617.395,3.9.7l.249.3a10.015,10.015,0,0,0-2.78-.634,8.9,8.9,0,0,0-2.848.23c-.359.089-.724.182-1.078.3l-.2,1.176c.435.045.871.093,1.3.118C529.063,1219.084,529.967,1219.1,530.89,1219.1Z" transform="translate(-526.837 -1208.743)" fill="#5a662f"/>
            </g>
            <g id="Grupo_241" data-name="Grupo 241" transform="translate(10.477 17.785)">
              <path id="Trazado_300" data-name="Trazado 300" d="M588.147,1232.876a8.953,8.953,0,0,0-.571-2.917,10.762,10.762,0,0,0-.538-1.254c-.226-.432-.565-.772-.832-1.181-.079-.122-.252-.021-.241.1.076.9.031,1.845.079,2.76.045.882.117,1.745.219,2.623.084.718.2,1.444.3,2.173h1.368A10.032,10.032,0,0,0,588.147,1232.876Z" transform="translate(-585.964 -1227.468)" fill="#5a662f"/>
            </g>
            <g id="Grupo_242" data-name="Grupo 242" transform="translate(12.955 21.224)">
              <path id="Trazado_301" data-name="Trazado 301" d="M601.624,1249.225a8.948,8.948,0,0,0-.347-1.112,11.371,11.371,0,0,0-.707-1.158c-.061-.107-.249-.111-.26.038-.053.738-.224,1.48-.287,2.227-.055.651-.078,1.285-.077,1.933h1.909A6.743,6.743,0,0,0,601.624,1249.225Z" transform="translate(-599.946 -1246.877)" fill="#5a662f"/>
            </g>
          </g>
        </g>
        <g id="Grupo_255" data-name="Grupo 255" transform="translate(311.953 247.741)">
          <g id="Grupo_247" data-name="Grupo 247" transform="translate(6.34 0)">
            <g id="Grupo_245" data-name="Grupo 245">
              <path id="Trazado_302" data-name="Trazado 302" d="M907.187,837.336l.054-45.588,7.156-13.577c-.451-2.9-.732-5.837-1.3-8.723-.2-1.017-.25-1.305-1.13-1.7-.552-.248-1.1-.5-1.653-.751l-8.675-3.945c-.106-.048-1.785-.88-1.822-.829-.93,1.278-2.029,2.522-2.833,3.865-.832,1.39-1.586,2.831-2.369,4.25a3.606,3.606,0,0,0-.669,2.051c.022.873.77,9.81.87,11.645l3.083,5.434L890.78,834.2Z" transform="translate(-890.78 -762.219)" fill="#eccfb2"/>
            </g>
            <g id="Grupo_246" data-name="Grupo 246" transform="translate(5.547 27.865)">
              <path id="Trazado_303" data-name="Trazado 303" d="M922.841,919.472s5.8,3.561,10.757,2.178l.011,1.828a12.149,12.149,0,0,1-11.527-1.111Z" transform="translate(-922.083 -919.472)" fill="#504e51"/>
            </g>
          </g>
          <g id="Grupo_248" data-name="Grupo 248" transform="translate(0 48.524)">
            <path id="Trazado_304" data-name="Trazado 304" d="M881.215,1047.974s-9.1-6.217-18.841-11.919L855,1077.688h25.694Z" transform="translate(-855 -1036.055)" fill="#7aa0bb"/>
          </g>
          <g id="Grupo_249" data-name="Grupo 249" transform="translate(2.296 48.477)">
            <path id="Trazado_305" data-name="Trazado 305" d="M873.094,1035.791l-5.137,2.8,1.1,10.649,24.046,6.506,1.365-4.124-2.589-3.865Z" transform="translate(-867.957 -1035.791)" fill="#6e90a8"/>
          </g>
          <g id="Grupo_250" data-name="Grupo 250" transform="translate(17.342 66.507)">
            <path id="Trazado_306" data-name="Trazado 306" d="M954.177,1138.041a.6.6,0,0,0-.68-.5.609.609,0,0,0-.5.68,6.383,6.383,0,0,1-.122,1.629c-.148.752,1.036.884,1.183.136A7.588,7.588,0,0,0,954.177,1138.041Z" transform="translate(-952.866 -1137.538)" fill="#89b3d1"/>
          </g>
          <g id="Grupo_251" data-name="Grupo 251" transform="translate(16.903 70.863)">
            <path id="Trazado_307" data-name="Trazado 307" d="M950.62,1162.628l-.224,1.952a.6.6,0,0,0,1.183.136l.224-1.952A.6.6,0,0,0,950.62,1162.628Z" transform="translate(-950.391 -1162.12)" fill="#89b3d1"/>
          </g>
          <g id="Grupo_252" data-name="Grupo 252" transform="translate(16.54 75.428)">
            <path id="Trazado_308" data-name="Trazado 308" d="M948.528,1188.391l-.183,1.6a.6.6,0,0,0,1.183.135l.183-1.6A.6.6,0,0,0,948.528,1188.391Z" transform="translate(-948.34 -1187.883)" fill="#89b3d1"/>
          </g>
          <g id="Grupo_253" data-name="Grupo 253" transform="translate(16.199 79.575)">
            <path id="Trazado_309" data-name="Trazado 309" d="M947.726,1211.786a.6.6,0,0,0-.68-.5.609.609,0,0,0-.5.68,6.382,6.382,0,0,1-.122,1.628c-.148.752,1.036.884,1.183.136A7.588,7.588,0,0,0,947.726,1211.786Z" transform="translate(-946.415 -1211.284)" fill="#89b3d1"/>
          </g>
          <g id="Grupo_254" data-name="Grupo 254" transform="translate(15.936 83.951)">
            <path id="Trazado_310" data-name="Trazado 310" d="M945.162,1236.487l-.224,1.952a.6.6,0,0,0,1.183.135l.224-1.952A.6.6,0,0,0,945.162,1236.487Z" transform="translate(-944.933 -1235.979)" fill="#89b3d1"/>
          </g>
        </g>
        <g id="Grupo_266" data-name="Grupo 266" transform="translate(354.481 279.468)">
          <g id="Grupo_256" data-name="Grupo 256" transform="translate(0 0)">
            <path id="Trazado_311" data-name="Trazado 311" d="M1124.353,992.124l2.471-43.383,1.789.4.837-2.85-17.1-5.024-.132,4.188,1.441.324-18.294,41.1L1095,999.7h30.3Z" transform="translate(-1095 -941.268)" fill="#8f9a9f"/>
          </g>
          <g id="Grupo_257" data-name="Grupo 257" transform="translate(18.063 4.451)">
            <path id="Trazado_312" data-name="Trazado 312" d="M1197.61,966.388l13.165,3.031-.391,2.629-13.452-4.256Z" transform="translate(-1196.933 -966.388)" fill="#9eb0b8"/>
          </g>
          <g id="Grupo_258" data-name="Grupo 258" transform="translate(15.84 8.744)">
            <path id="Trazado_313" data-name="Trazado 313" d="M1185.326,990.615l14.725,4.394-.163,2.865-15.5-5.156Z" transform="translate(-1184.389 -990.615)" fill="#9eb0b8"/>
          </g>
          <g id="Grupo_259" data-name="Grupo 259" transform="translate(13.432 13.524)">
            <path id="Trazado_314" data-name="Trazado 314" d="M1172.016,1017.59l16.587,4.273-.12,2.114-17.684-3.654Z" transform="translate(-1170.799 -1017.59)" fill="#9eb0b8"/>
          </g>
          <g id="Grupo_260" data-name="Grupo 260" transform="translate(11.34 19.108)">
            <path id="Trazado_315" data-name="Trazado 315" d="M1159.816,1049.1l18.764,4.1-.148,2.606-19.439-4.859Z" transform="translate(-1158.993 -1049.101)" fill="#9eb0b8"/>
          </g>
          <g id="Grupo_261" data-name="Grupo 261" transform="translate(9.028 23.482)">
            <path id="Trazado_316" data-name="Trazado 316" d="M1147.136,1073.781l20.412,4.973-.161,2.82-21.44-5.124Z" transform="translate(-1145.948 -1073.781)" fill="#9eb0b8"/>
          </g>
          <g id="Grupo_262" data-name="Grupo 262" transform="translate(6.47 29.767)">
            <path id="Trazado_317" data-name="Trazado 317" d="M1132.458,1109.251l22.841,5.18-.156,2.734-23.633-5.783Z" transform="translate(-1131.51 -1109.251)" fill="#9eb0b8"/>
          </g>
          <g id="Grupo_263" data-name="Grupo 263" transform="translate(3.27 35.264)">
            <path id="Trazado_318" data-name="Trazado 318" d="M1115.156,1140.271l24.965,5.345-.182,3.2-26.483-4.727Z" transform="translate(-1113.455 -1140.271)" fill="#9eb0b8"/>
          </g>
          <g id="Grupo_264" data-name="Grupo 264" transform="translate(0.442 42.17)">
            <path id="Trazado_319" data-name="Trazado 319" d="M1098.95,1179.246l27.664,5.022-.187,3.276L1097.5,1182.7Z" transform="translate(-1097.495 -1179.246)" fill="#9eb0b8"/>
          </g>
          <g id="Grupo_265" data-name="Grupo 265" transform="translate(0.222 49.105)">
            <path id="Trazado_320" data-name="Trazado 320" d="M1096.327,1218.384l29.341,3.811.376,2.734-29.79-2.943Z" transform="translate(-1096.254 -1218.384)" fill="#9eb0b8"/>
          </g>
        </g>
        <g id="Grupo_275" data-name="Grupo 275" transform="translate(423.918 244.819)">
          <g id="Grupo_273" data-name="Grupo 273">
            <g id="Grupo_267" data-name="Grupo 267">
              <path id="Trazado_321" data-name="Trazado 321" d="M1503.252,763.977l1.109-6.754,1.1-2.862-3.62-8.631-1.862,1.317-.013-.049-3.316.072-1.334,3.589-1.561-1.45-3.1.848-.3,1.785-1.309-2.263-2.187,1.655,1.92,3.107-.119.059.343,8.8.9,2.429.986,3.986-3.4,41.207,25.458-7.108-10.057-37.659Z" transform="translate(-1486.852 -745.729)" fill="#dab6a5"/>
            </g>
            <g id="Grupo_268" data-name="Grupo 268" transform="translate(1.005 31.789)">
              <path id="Trazado_322" data-name="Trazado 322" d="M1511.368,925.123l-18.037,1.575a50.57,50.57,0,0,0-.686,12.494l22.112-4.282A66.57,66.57,0,0,0,1511.368,925.123Z" transform="translate(-1492.526 -925.123)" fill="#ba7765"/>
            </g>
            <g id="Grupo_269" data-name="Grupo 269" transform="translate(6.047 32.818)">
              <path id="Trazado_323" data-name="Trazado 323" d="M1520.976,931.1l1.369,11.405,2.275-.347-1.951-11.229Z" transform="translate(-1520.976 -930.933)" fill="#cc9181"/>
            </g>
            <g id="Grupo_270" data-name="Grupo 270" transform="translate(9.75 32.505)">
              <path id="Trazado_324" data-name="Trazado 324" d="M1541.874,929.323l2.137,10.891,2.032-.383-2.393-10.665Z" transform="translate(-1541.874 -929.166)" fill="#cc9181"/>
            </g>
            <g id="Grupo_271" data-name="Grupo 271" transform="translate(14.11 32.131)">
              <path id="Trazado_325" data-name="Trazado 325" d="M1566.48,927.2l2.078,10.466,2.2-.435-2.623-10.178Z" transform="translate(-1566.48 -927.052)" fill="#cc9181"/>
            </g>
            <g id="Grupo_272" data-name="Grupo 272" transform="translate(17.296 31.702)">
              <path id="Trazado_326" data-name="Trazado 326" d="M1584.458,924.925l3.285,9.8,2.1-.336-3.458-9.757Z" transform="translate(-1584.458 -924.632)" fill="#cc9181"/>
            </g>
          </g>
          <g id="Grupo_274" data-name="Grupo 274" transform="translate(2.652 33.137)">
            <path id="Trazado_327" data-name="Trazado 327" d="M1502.254,932.857l-.437,12.023,1.8-.34.046-11.808Z" transform="translate(-1501.817 -932.732)" fill="#cc9181"/>
          </g>
        </g>
        <g id="Grupo_277" data-name="Grupo 277" transform="translate(418.888 286.194)">
          <g id="Grupo_276" data-name="Grupo 276" transform="translate(0)">
            <path id="Trazado_328" data-name="Trazado 328" d="M1496.237,1002.32a179.218,179.218,0,0,0-8.3-23.1l-24.773,4.679a105.309,105.309,0,0,0-.373,17.209c-2.665,9.771-3.789,20.693-4.327,29.815h55.089A78.92,78.92,0,0,0,1496.237,1002.32Z" transform="translate(-1458.466 -979.223)" fill="#ad6f5e"/>
          </g>
        </g>
        <g id="Grupo_278" data-name="Grupo 278" transform="translate(327.584 336.257)">
          <path id="Trazado_329" data-name="Trazado 329" d="M943.34,1262.251l-.13,1.132h1.2l.115-1A.6.6,0,0,0,943.34,1262.251Z" transform="translate(-943.21 -1261.743)" fill="#89b3d1"/>
        </g>
        <g id="Grupo_279" data-name="Grupo 279" transform="translate(330.066 314.068)">
          <path id="Trazado_330" data-name="Trazado 330" d="M959.8,1152.634q-.008-5.6.043-11.192c.014-1.529.054-3.067.081-4.605l-1.157-.313c-.1,1.71-.171,3.421-.277,5.118q-.342,5.469-.749,10.933c-.19,2.592-.377,5.183-.522,7.778h2.547C959.8,1157.781,959.8,1155.207,959.8,1152.634Z" transform="translate(-957.219 -1136.524)" fill="#89b3d1"/>
        </g>
      </g>
    </g>
  </g>
</svg>
