<svg xmlns="http://www.w3.org/2000/svg" width="162.74" height="62.938" viewBox="0 0 162.74 62.938">
  <g id="logo-02" transform="translate(-248.289 -466.749)">
    <g id="PointGirl">
      <g id="PointGirl-2">
        <g id="Grupo_334" data-name="Grupo 334">
          <path id="Trazado_404" data-name="Trazado 404" d="M304.855,503.651A8,8,0,0,1,307.3,505.3a7.629,7.629,0,0,1,1.658,2.434,7.62,7.62,0,0,1,0,5.951A7.463,7.463,0,0,1,307.3,516.1a8.136,8.136,0,0,1-2.449,1.628,7.4,7.4,0,0,1-2.976.6h-2.418l-2.356-4.34h4.774a3.2,3.2,0,0,0,1.287-.263,2.983,2.983,0,0,0,1.038-.745,3.733,3.733,0,0,0,.7-1.146,3.968,3.968,0,0,0,.264-1.473,3.4,3.4,0,0,0-.264-1.317,4.066,4.066,0,0,0-.7-1.132,3.474,3.474,0,0,0-1.038-.806,2.78,2.78,0,0,0-1.287-.31h-5.487v17.949h-4.309v-21.7h9.8A7.42,7.42,0,0,1,304.855,503.651Z" fill="#d01568"/>
          <path id="Trazado_405" data-name="Trazado 405" d="M318.216,509a7.742,7.742,0,0,1,3.131.636,8.1,8.1,0,0,1,4.262,4.262,7.873,7.873,0,0,1,0,6.2,8.1,8.1,0,0,1-4.262,4.262,8.025,8.025,0,0,1-6.262,0,8.11,8.11,0,0,1-4.263-4.262,7.885,7.885,0,0,1,0-6.2,8.11,8.11,0,0,1,4.263-4.262A7.739,7.739,0,0,1,318.216,509Zm0,12.307a3.122,3.122,0,0,0,1.441-.341,3.784,3.784,0,0,0,1.178-.945,4.7,4.7,0,0,0,.807-1.4,4.924,4.924,0,0,0,.294-1.721,4.747,4.747,0,0,0-.294-1.659,4.285,4.285,0,0,0-.807-1.363,3.988,3.988,0,0,0-1.178-.915,3.122,3.122,0,0,0-1.441-.341,3.215,3.215,0,0,0-1.457.341,3.941,3.941,0,0,0-1.194.915,4.3,4.3,0,0,0-.806,1.363,4.7,4.7,0,0,0-.294,1.659,4.879,4.879,0,0,0,.294,1.721,4.714,4.714,0,0,0,.806,1.4,3.742,3.742,0,0,0,1.194.945A3.215,3.215,0,0,0,318.216,521.306Z" fill="#d01568"/>
          <path id="Trazado_406" data-name="Trazado 406" d="M327.8,503.047h4.123v3.627H327.8Zm0,21.7v-15.5h4.123v15.5Z" fill="#d01568"/>
          <path id="Trazado_407" data-name="Trazado 407" d="M333.778,509.247h4.216v15.5h-4.216Zm14.322,1.8a5.974,5.974,0,0,1,1.116,2.418,16.1,16.1,0,0,1,.341,3.6v7.688h-4.216v-7.708q0-.87-.047-1.663a3.866,3.866,0,0,0-.325-1.4,2.043,2.043,0,0,0-.9-.948,3.728,3.728,0,0,0-1.767-.342,4.441,4.441,0,0,0-2.015.465v.031l-.031-.031-1.519-2.678.031-.031A5.814,5.814,0,0,1,342.8,509Q346.519,509,348.1,511.045Z" fill="#d01568"/>
          <path id="Trazado_408" data-name="Trazado 408" d="M357.307,519.446a1.618,1.618,0,0,0,.511,1.209,1.7,1.7,0,0,0,1.224.5h3.007v3.6h-3.007a5.83,5.83,0,0,1-4.138-1.689,6.027,6.027,0,0,1-1.256-1.845,5.541,5.541,0,0,1-.464-2.263V514.3h-2.232v-3.441h2.232v-5.611h4.123Zm4.742-8.587V514.3h-2.294l-1.922-3.441Z" fill="#d01568"/>
          <path id="Trazado_409" data-name="Trazado 409" d="M385.3,512.967q.031.465.032.93a11.435,11.435,0,0,1-.822,4.325,11.039,11.039,0,0,1-2.263,3.534,10.6,10.6,0,0,1-7.7,3.239,10.877,10.877,0,0,1-4.324-.868,11.018,11.018,0,0,1-5.906-5.905,11.209,11.209,0,0,1,0-8.65,11.017,11.017,0,0,1,5.906-5.9,10.894,10.894,0,0,1,4.324-.868,10.638,10.638,0,0,1,5.472,1.441,11.407,11.407,0,0,1,3.952,3.8l-3.627,2.325a6.766,6.766,0,0,0-2.371-2.681,6.105,6.105,0,0,0-3.426-1.008,5.992,5.992,0,0,0-2.6.574,6.769,6.769,0,0,0-2.107,1.55,7.391,7.391,0,0,0-1.427,2.294,7.729,7.729,0,0,0,0,5.61A7.379,7.379,0,0,0,369.831,519a6.8,6.8,0,0,0,2.107,1.551,6.183,6.183,0,0,0,4.712.2,5.663,5.663,0,0,0,1.767-1.054,7.252,7.252,0,0,0,1.349-1.6,6.984,6.984,0,0,0,.853-2.031h-5.89l-1.984-4.03h12.462Q385.268,512.5,385.3,512.967Z" fill="#d01568"/>
          <path id="Trazado_410" data-name="Trazado 410" d="M387.036,503.047h4.123v3.627h-4.123Zm0,21.7v-15.5h4.123v15.5Z" fill="#d01568"/>
          <path id="Trazado_411" data-name="Trazado 411" d="M405.667,509.867l-.373.62-1.581,2.821-.03-.031a4.453,4.453,0,0,0-3.721-.326,4.134,4.134,0,0,0-1.271.744,4.6,4.6,0,0,0-.945,1.132,3.979,3.979,0,0,0-.512,1.395v8.525h-4.215v-15.5h4.215v2.015A5.568,5.568,0,0,1,402.04,509a7.954,7.954,0,0,1,3.6.868Z" fill="#d01568"/>
          <path id="Trazado_412" data-name="Trazado 412" d="M411.029,503.047v21.7h-4.123l.031-21.7Z" fill="#d01568"/>
        </g>
      </g>
    </g>
    <path id="Trazado_353" data-name="Trazado 353" d="M285.576,490.138a18.912,18.912,0,1,0-36.751,0,28.177,28.177,0,0,0,2.065,7.357c1.857,3.9,9.678,16.788,13.269,22.66-4.855.618-7.106,2.7-7.106,4.673,0,2.339,3.174,4.859,10.148,4.859s10.148-2.52,10.148-4.859c0-1.967-2.254-4.055-7.106-4.673,3.591-5.872,11.412-18.755,13.269-22.66A28.313,28.313,0,0,0,285.576,490.138Zm-11.151,34.693c-.2.553-2.639,1.94-7.222,1.94-4.639,0-7.084-1.42-7.229-1.922.13-.484,2.124-1.676,5.892-1.913l.094.155a1.464,1.464,0,0,0,2.487,0c.016-.029.049-.085.092-.155C272.258,523.165,274.25,524.331,274.425,524.831Zm-20.9-28.587a26.03,26.03,0,0,1-1.83-6.633c-.007-.038-.013-.078-.022-.114a15.988,15.988,0,1,1,31.049,0,.915.915,0,0,0-.022.114,26.081,26.081,0,0,1-1.828,6.629c-1.875,3.938-10.437,18-13.672,23.289-3.237-5.285-11.8-19.346-13.676-23.287Z" fill="#384a93"/>
    <path id="Trazado_354" data-name="Trazado 354" d="M267.2,472a13.278,13.278,0,1,0,13.278,13.278A13.278,13.278,0,0,0,267.2,472Z" fill="#384a93" stroke="#fff" stroke-width="1"/>
    <path id="Trazado_355" data-name="Trazado 355" d="M255.912,485.28a11.29,11.29,0,1,1,11.29,11.29h0A11.3,11.3,0,0,1,255.912,485.28Z" fill="#d01568"/>
    <circle id="Elipse_29" data-name="Elipse 29" cx="1.55" cy="1.55" r="1.55" transform="translate(258.422 484.035)" fill="#fff"/>
    <circle id="Elipse_30" data-name="Elipse 30" cx="1.55" cy="1.55" r="1.55" transform="translate(273.156 484.035)" fill="#fff"/>
    <path id="Trazado_357" data-name="Trazado 357" d="M264.807,486.1A3,3,0,0,0,267.4,487.5a2.63,2.63,0,0,0,2.254-1.409" fill="none" stroke="#fff" stroke-linecap="round" stroke-linejoin="round" stroke-width="1"/>
  </g>
</svg>
