<svg xmlns="http://www.w3.org/2000/svg" width="164.99" height="272.541" viewBox="0 0 164.99 272.541">
  <g id="logo-01" transform="translate(-102.744 -621.505)">
    <path id="Exclusión_1" data-name="Exclusión 1" d="M186.734,848.072c-25.031,0-36.431-9.045-36.431-17.449,0-3.682,2.21-7.306,6.222-10.2,4.524-3.268,11.194-5.54,19.289-6.57-12.086-19.761-40.918-67.241-47.633-81.347-3.1-6.516-5.6-15.4-7.408-26.408a67.887,67.887,0,1,1,131.924,0c-1.818,11.019-4.311,19.9-7.409,26.408-6.728,14.13-35.554,61.592-47.635,81.343,8.1,1.031,14.768,3.3,19.292,6.57,4.013,2.9,6.223,6.522,6.223,10.2C223.168,839.027,211.766,848.072,186.734,848.072Zm-4.8-24.255a51.154,51.154,0,0,0-15.47,3.1c-3.6,1.42-5.45,2.916-5.68,3.769.279.956,2.749,2.68,6.929,4.123a58.505,58.505,0,0,0,19.023,2.774c16.471,0,25.225-4.982,25.933-6.964-.31-.868-2.223-2.366-5.8-3.755a51.42,51.42,0,0,0-15.333-3.05l-.053.086c-.129.211-.232.377-.284.468a5.244,5.244,0,0,1-8.926,0l-.141-.229v-.008Zm4.8-191.175A57.409,57.409,0,0,0,131,703.8c.03.12.057.249.083.407,1.637,9.988,3.9,18.217,6.56,23.8,6.653,13.968,36.546,63.117,49.089,83.6,9.768-15.945,42.183-69.1,49.09-83.6,2.654-5.585,4.923-13.814,6.561-23.8a3.762,3.762,0,0,1,.082-.407,57.408,57.408,0,0,0-55.734-71.154Zm0,103.676A47.665,47.665,0,1,1,234.4,688.653v.005a47.717,47.717,0,0,1-47.666,47.66Zm0-88.193a40.528,40.528,0,1,0,40.528,40.533A40.528,40.528,0,0,0,186.734,648.125Zm26.941,47.189a5.565,5.565,0,1,1,5.564-5.566v0A5.57,5.57,0,0,1,213.675,695.314Zm-52.893,0a5.565,5.565,0,1,1,5.566-5.564h0A5.57,5.57,0,0,1,160.782,695.314Z" fill="#fff" stroke="#fff" stroke-width="1"/>
    <g id="PointGirl">
      <g id="Grupo_332" data-name="Grupo 332">
        <path id="Trazado_395" data-name="Trazado 395" d="M120.46,864.44a11.085,11.085,0,0,1,3.4,2.28,10.612,10.612,0,0,1,2.3,3.375,10.459,10.459,0,0,1-2.3,11.61,11.278,11.278,0,0,1-3.4,2.258,10.286,10.286,0,0,1-4.128.838h-3.354l-3.268-6.02h6.622a4.433,4.433,0,0,0,1.785-.365,4.153,4.153,0,0,0,1.44-1.032,5.222,5.222,0,0,0,.968-1.591,5.523,5.523,0,0,0,.365-2.043,4.74,4.74,0,0,0-.365-1.827,5.664,5.664,0,0,0-.968-1.569,4.819,4.819,0,0,0-1.44-1.119,3.868,3.868,0,0,0-1.785-.43h-7.611v24.9h-5.977V863.6h13.588A10.286,10.286,0,0,1,120.46,864.44Z" fill="#fff"/>
        <path id="Trazado_396" data-name="Trazado 396" d="M138.993,871.858a10.756,10.756,0,0,1,4.343.881,11.255,11.255,0,0,1,5.913,5.913,10.934,10.934,0,0,1,0,8.6,11.255,11.255,0,0,1-5.913,5.913,11.145,11.145,0,0,1-8.686,0,11.249,11.249,0,0,1-5.912-5.913,10.923,10.923,0,0,1,0-8.6,11.249,11.249,0,0,1,5.912-5.913A10.753,10.753,0,0,1,138.993,871.858Zm0,17.071a4.336,4.336,0,0,0,2-.473,5.265,5.265,0,0,0,1.633-1.311,6.463,6.463,0,0,0,1.119-1.935,6.79,6.79,0,0,0,.408-2.387,6.553,6.553,0,0,0-.408-2.3,5.9,5.9,0,0,0-1.119-1.891,5.588,5.588,0,0,0-1.633-1.269,4.336,4.336,0,0,0-2-.473,4.462,4.462,0,0,0-2.021.473,5.518,5.518,0,0,0-1.656,1.269,5.918,5.918,0,0,0-1.117,1.891,6.531,6.531,0,0,0-.409,2.3,6.768,6.768,0,0,0,.409,2.387,6.479,6.479,0,0,0,1.117,1.935,5.2,5.2,0,0,0,1.656,1.311A4.462,4.462,0,0,0,138.993,888.929Z" fill="#fff"/>
        <path id="Trazado_397" data-name="Trazado 397" d="M152.28,863.6H158v5.03H152.28Zm0,30.1V872.2H158v21.5Z" fill="#fff"/>
        <path id="Trazado_398" data-name="Trazado 398" d="M160.579,872.2h5.848v21.5h-5.848Zm19.866,2.494a8.278,8.278,0,0,1,1.548,3.354,22.322,22.322,0,0,1,.473,4.988V893.7h-5.848V883.011q0-1.207-.064-2.307a5.35,5.35,0,0,0-.452-1.939,2.837,2.837,0,0,0-1.247-1.316,5.171,5.171,0,0,0-2.451-.473,6.16,6.16,0,0,0-2.8.644v.043l-.043-.043-2.107-3.716.043-.042a8.064,8.064,0,0,1,5.59-2Q178.252,871.858,180.445,874.7Z" fill="#fff"/>
        <path id="Trazado_399" data-name="Trazado 399" d="M193.215,886.35a2.245,2.245,0,0,0,.71,1.676,2.353,2.353,0,0,0,1.7.688h4.17V893.7h-4.17a8.083,8.083,0,0,1-3.161-.623,7.97,7.97,0,0,1-2.58-1.721,8.307,8.307,0,0,1-1.741-2.558,7.671,7.671,0,0,1-.645-3.139v-6.45h-3.1v-4.773h3.1v-7.783h5.718Zm6.579-11.912v4.773h-3.182l-2.666-4.773Z" fill="#fff"/>
        <path id="Trazado_400" data-name="Trazado 400" d="M232.044,877.362q.043.645.043,1.29a15.846,15.846,0,0,1-1.139,6,15.3,15.3,0,0,1-3.139,4.9,14.7,14.7,0,0,1-10.685,4.493,15.07,15.07,0,0,1-6-1.2,15.28,15.28,0,0,1-8.192-8.192,15.545,15.545,0,0,1,0-12,15.292,15.292,0,0,1,8.192-8.191,15.1,15.1,0,0,1,6-1.2,14.758,14.758,0,0,1,7.589,2,15.83,15.83,0,0,1,5.482,5.267l-5.031,3.225a9.4,9.4,0,0,0-3.289-3.72,8.483,8.483,0,0,0-4.751-1.4,8.312,8.312,0,0,0-3.613.8,9.42,9.42,0,0,0-2.924,2.15,10.26,10.26,0,0,0-1.978,3.182,10.724,10.724,0,0,0,0,7.783,10.271,10.271,0,0,0,1.978,3.182,9.419,9.419,0,0,0,2.924,2.15,8.576,8.576,0,0,0,6.536.279,7.843,7.843,0,0,0,2.452-1.462,10.075,10.075,0,0,0,1.87-2.214,9.685,9.685,0,0,0,1.182-2.817h-8.17l-2.752-5.59h17.287C231.972,876.5,232.016,876.933,232.044,877.362Z" fill="#fff"/>
        <path id="Trazado_401" data-name="Trazado 401" d="M234.452,863.6h5.719v5.03h-5.719Zm0,30.1V872.2h5.719v21.5Z" fill="#fff"/>
        <path id="Trazado_402" data-name="Trazado 402" d="M260.3,873.063l-.516.859-2.193,3.913-.043-.043a6.176,6.176,0,0,0-5.16-.451,5.716,5.716,0,0,0-1.763,1.032,6.3,6.3,0,0,0-1.311,1.569,5.5,5.5,0,0,0-.71,1.935V893.7h-5.848V872.2H248.6V875a7.72,7.72,0,0,1,6.665-3.139,11.023,11.023,0,0,1,4.988,1.205Z" fill="#fff"/>
        <path id="Trazado_403" data-name="Trazado 403" d="M267.734,863.6v30.1h-5.719l.043-30.1Z" fill="#fff"/>
      </g>
    </g>
  </g>
</svg>
