<svg xmlns="http://www.w3.org/2000/svg" width="24" height="24" viewBox="0 0 24 24">
  <g id="mapa" transform="translate(-42 -616)">
    <g id="baseline-map-24px" transform="translate(42 616)">
      <path id="Trazado_360" data-name="Trazado 360" d="M20.5,3l-.16.03L15,5.1,9,3,3.36,4.9A.5.5,0,0,0,3,5.38V20.5a.5.5,0,0,0,.5.5l.16-.03L9,18.9,15,21l5.64-1.9a.5.5,0,0,0,.36-.48V3.5A.5.5,0,0,0,20.5,3ZM15,19,9,16.89V5l6,2.11Z" fill="#333"/>
      <path id="Trazado_361" data-name="Trazado 361" d="M0,0H24V24H0Z" fill="none"/>
    </g>
  </g>
</svg>
